<?xml version="1.0" encoding="UTF-8" standalone="no"?>
<svg
   version="1.0"
   width="860.000000pt"
   height="860.000000pt"
   viewBox="0 0 860.000000 860.000000"
   preserveAspectRatio="xMidYMid meet"
   id="svg1"
   sodipodi:docname="openpgp.svg"
   xml:space="preserve"
   inkscape:version="1.4.3 (0d15f75, 2025-12-25)"
   xmlns:inkscape="http://www.inkscape.org/namespaces/inkscape"
   xmlns:sodipodi="http://sodipodi.sourceforge.net/DTD/sodipodi-0.dtd"
   xmlns="http://www.w3.org/2000/svg"
   xmlns:svg="http://www.w3.org/2000/svg"><defs
     id="defs1" /><sodipodi:namedview
     id="namedview1"
     pagecolor="#505050"
     bordercolor="#ffffff"
     borderopacity="1"
     inkscape:showpageshadow="0"
     inkscape:pageopacity="0"
     inkscape:pagecheckerboard="1"
     inkscape:deskcolor="#505050"
     inkscape:document-units="pt"
     inkscape:zoom="0.68881245"
     inkscape:cx="540.78581"
     inkscape:cy="603.21209"
     inkscape:window-width="2256"
     inkscape:window-height="1398"
     inkscape:window-x="-11"
     inkscape:window-y="-11"
     inkscape:window-maximized="1"
     inkscape:current-layer="svg1" /><metadata
     id="metadata1">
Created by potrace 1.14, written by Peter Selinger 2001-2017
</metadata><g
     id="g5"
     style="fill:#3f3f3f;fill-opacity:1"><path
       id="path2"
       style="fill:#3f3f3f;fill-opacity:1;stroke:#000000;stroke-width:0.999997;stroke-linecap:round;stroke-linejoin:round;paint-order:markers stroke fill"
       d="M 432.104 160.4707 C 421.14932 159.66914 410.8002 163.99951 402.7002 172.99951 C 398.79267 177.35361 396.17806 182.45652 394.80469 187.81494 A 40.805729 47.350044 0 0 0 396.11572 210.28711 C 398.47037 216.4124 402.49444 221.93007 408.09961 226.00049 C 425.74247 238.74255 450.59138 233.61537 461.17529 215.42139 C 461.1755 215.42103 461.17509 215.42027 461.17529 215.41992 L 435.00439 195.94482 L 461.17822 215.41553 C 461.39139 215.04894 461.59791 214.67647 461.79932 214.29932 C 467.59932 203.19932 467.89951 191.3999 462.49951 180.3999 C 459.09951 173.3999 450.6002 165.70049 443.2002 163.00049 C 439.4752 161.57549 435.75557 160.73789 432.104 160.4707 z " /><path
       id="path2-5"
       style="fill:#3f3f3f;fill-opacity:1;stroke:#000000;stroke-width:0.999997;stroke-linecap:round;stroke-linejoin:round;paint-order:markers stroke fill"
       d="M 431.58838 545.65137 C 421.43057 545.0748 412.0749 548.89951 403.8999 556.99951 C 396.6999 564.09951 393.7002 571.4 393.7002 582 C 393.7002 592.8 396.59941 599.69961 404.39941 607.59961 C 412.19941 615.39961 419.20049 618.30029 430.00049 618.30029 C 440.60049 618.30029 447.79951 615.40059 454.99951 608.10059 C 455.8654 607.23469 456.76237 606.25099 457.63184 605.22949 L 425.00537 580.94824 L 457.6377 605.22363 C 459.87912 602.58959 461.93562 599.6998 462.7998 597.89941 C 463.15779 597.1606 463.48782 596.41501 463.79004 595.66406 A 40.805729 47.350044 0 0 0 465.32813 573.68994 C 462.51104 561.98384 454.08008 551.76708 442.00049 547.70068 C 438.45049 546.52568 434.97432 545.84355 431.58838 545.65137 z " /><path
       id="path2-1"
       style="fill:#3f3f3f;fill-opacity:1;stroke:#000000;stroke-width:1.84079;stroke-linecap:round;stroke-linejoin:round;paint-order:markers stroke fill"
       d="M 429.57568 286.16309 C 425.25068 286.17559 420.95029 286.6501 415.80029 287.6001 C 381.50029 293.8001 354.49951 321 348.49951 355.5 C 347.49951 361.6 346.99951 371.1001 346.99951 386.6001 L 346.99951 409.00049 L 430.1001 409.00049 L 513.20068 409.00049 L 512.79932 382.19971 C 512.29932 353.89971 511.9001 351.00029 506.6001 337.80029 C 496.1001 311.90029 471.70049 292.40049 443.50049 287.50049 C 438.25049 286.60049 433.90068 286.15059 429.57568 286.16309 z M 427.88525 347.04932 L 450.54346 358.78271 L 450.5332 358.78271 L 427.88525 347.04932 z " /></g><path
     style="fill:#808080;stroke:#000000;stroke-width:0.999997;stroke-linecap:round;stroke-linejoin:round;paint-order:markers stroke fill;fill-opacity:1"
     d="M 302.2998,70.999512 269.90039,98.600098 C 246.63573,118.32273 239.8309,124.30657 237.90527,127.40332 v 17.85205 c 1.72988,36.07178 6.45197,129.10888 12.09522,236.64404 7.1,137.1 12.99902,250.80059 12.99902,252.60059 0,3.1 3.70069,6.5001 70.70069,64.1001 38.9,33.5 71.00048,60.9997 71.50048,61.1997 0.4,0.2 0.79981,-21.4 0.79981,-48 v -48.30029 l -7.40039,-2.79931 c -14.4,-5.3 -29.59981,-17.4003 -38.29981,-30.3003 -5.8,-8.5 -8.90039,-15.1001 -11.90039,-25.1001 -2.4,-7.7 -2.6997,-10.50029 -2.6997,-22.80029 0,-11.3 0.40019,-15.49902 2.20019,-21.99902 8,-29.3 31.49912,-52.80059 60.59912,-60.60059 11.3,-3 31.69981,-3 42.79981,0 8.9,2.3 21.60068,8.39961 28.70068,13.59961 15.9,11.7 28.99961,31.8 33.09961,51 2.1,9.6 1.60098,29.5 -0.99902,39 -7,26.3 -28.2003,49.5001 -52.8003,58.1001 l -5.2998,1.8999 v 48.79981 48.80127 l 21.29883,-18.3003 c 11.6,-10.1 43.80048,-37.79961 71.50048,-61.59961 29.9,-25.8 50.2002,-44 50.2002,-45 0,-0.9 2,-40.30097 4.5,-87.50097 2.5,-47.3 4.5,-87.2003 4.5,-88.8003 v -2.89892 H 452.39941 298.8999 l 0.3999,-55.30078 c 0.3,-51.3 0.50088,-55.79971 2.40088,-64.19971 5.9,-25.9 17.39971,-46.80059 35.69971,-65.10059 8.6,-8.6 22.0999,-19.3997 25.8999,-20.6997 0.6,-0.2 -1.20009,-3.8002 -4.10009,-8.2002 -20.3,-30.9 -18.30088,-70.99931 5.09912,-100.29931 10.1,-12.8 29.10068,-24.89991 45.20068,-28.89991 9.9,-2.4 31.49951,-2.40039 40.99951,0.0996 31.4,8.2 55.7001,33.40059 62.6001,65.10059 1.9,8.7 1.60088,28.39902 -0.59912,36.99902 -2.1,8.5 -8.20049,22.00108 -13.00049,28.60108 -1.9,2.7 -3.49951,5.09941 -3.49951,5.39941 0,0.2 3.29931,2.69941 7.29931,5.39941 23.7,16 43.6002,42.4001 51.7002,68.6001 4.9,16.2 5.19971,18.60117 5.69971,52.20117 l 0.50097,32.29981 h 48 48 l 1.79883,-48 h -24 -23.89892 l 0.49951,-6.30029 c 0.8,-9.8 11.39941,-217.39971 11.39941,-223.19971 V 126.3999 L 590.39941,98.699707 557.90039,70.999512 H 430.1001 Z"
     id="path5" /><path
     d="m 2360,8029 c -239,-214 -447,-402 -462,-417 l -27,-27 147,-2801 147,-2801 30,-26 c 17,-14 496,-426 1065,-916 569,-490 1038,-891 1041,-891 3,0 484,412 1070,916 875,753 1064,920 1066,942 2,15 30,547 63,1182 32,635 62,1192 66,1238 l 6,82 h -480 -480 l -5,323 c -5,336 -8,360 -57,522 -81,262 -280,526 -517,686 -40,27 -73,52 -73,54 0,3 16,27 35,54 48,66 109,201 130,286 22,86 25,283 6,370 -69,317 -312,569 -626,651 -95,25 -311,25 -410,1 -161,-40 -351,-161 -452,-289 -234,-293 -254,-694 -51,-1003 29,-44 47,-80 41,-82 -38,-13 -173,-121 -259,-207 -183,-183 -298,-392 -357,-651 -19,-84 -21,-129 -24,-642 l -4,-553 h 1535 1536 v -29 c 0,-16 -20,-415 -45,-888 -25,-472 -45,-866 -45,-875 0,-10 -203,-192 -502,-450 -277,-238 -599,-515 -715,-616 L 4540,989 v 488 488 l 53,19 c 246,86 458,318 528,581 26,95 31,294 10,390 -41,192 -172,393 -331,510 -71,52 -198,113 -287,136 -111,30 -315,30 -428,0 -291,-78 -526,-313 -606,-606 -18,-65 -22,-107 -22,-220 0,-123 3,-151 27,-228 30,-100 61,-166 119,-251 87,-129 239,-250 383,-303 l 74,-28 v -483 c 0,-266 -4,-482 -8,-480 -5,2 -326,277 -715,612 -670,576 -707,610 -707,641 0,18 -59,1155 -130,2526 -72,1372 -129,2508 -128,2526 3,29 38,62 327,307 l 324,276 h 1278 1278 l 325,-277 326,-277 v -51 c 0,-58 -106,-2134 -114,-2232 l -5,-63 h 239 240 l 4,23 c 3,12 34,597 71,1299 l 66,1277 -42,38 c -23,21 -231,208 -463,415 l -421,378 H 4300 l -1505,-1 z M 4432,6970 c 74,-27 159,-104 193,-174 54,-110 51,-228 -7,-339 -102,-191 -357,-247 -537,-117 -168,122 -194,374 -54,530 108,120 256,157 405,100 z m 3,-1245 c 282,-49 526,-244 631,-503 53,-132 57,-161 62,-444 l 4,-268 h -831 -831 v 224 c 0,155 5,250 15,311 60,345 330,617 673,679 103,19 172,19 277,1 z m -15,-2602 c 202,-68 302,-308 208,-502 -12,-25 -47,-71 -78,-102 -72,-73 -144,-102 -250,-102 -108,0 -178,29 -256,107 -78,79 -107,148 -107,256 0,106 30,179 102,250 109,108 239,140 381,93 z"
     id="path4"
     style="display:inline;fill:#66cc66;fill-opacity:1"
     inkscape:label="openpgp"
     transform="matrix(0.1,0,0,-0.1,0,860.00003)" /></svg>
